<svg width="14" height="16" viewBox="0 0 14 16" fill="none" xmlns="http://www.w3.org/2000/svg">
<g clip-path="url(#clip0)">
<path d="M1.84616 3.07692L3.07693 14.7692H10.4615L11.6923 3.07692H1.84616Z" fill="#C0392B"/>
<path d="M1.84615 3.07692V2.46154C1.67173 2.46154 1.5055 2.53556 1.3888 2.66518C1.2721 2.79482 1.21589 2.96788 1.23415 3.14134L1.84615 3.07692ZM3.07692 14.7692L2.46492 14.8336C2.49788 15.1468 2.76199 15.3846 3.07692 15.3846V14.7692ZM10.4615 14.7692V15.3846C10.7765 15.3846 11.0406 15.1468 11.0735 14.8336L10.4615 14.7692ZM11.6923 3.07692L12.3043 3.14134C12.3226 2.96788 12.2664 2.79482 12.1497 2.66518C12.033 2.53556 11.8667 2.46154 11.6923 2.46154V3.07692ZM0.615385 0.615385C0.275518 0.615385 0 0.890902 0 1.23077C0 1.57063 0.275518 1.84615 0.615385 1.84615V0.615385ZM12.9231 1.84615C13.2629 1.84615 13.5385 1.57063 13.5385 1.23077C13.5385 0.890902 13.2629 0.615385 12.9231 0.615385V1.84615ZM4.30769 0C3.96783 0 3.69231 0.275518 3.69231 0.615385C3.69231 0.955252 3.96783 1.23077 4.30769 1.23077V0ZM9.23077 1.23077C9.57063 1.23077 9.84615 0.955252 9.84615 0.615385C9.84615 0.275518 9.57063 0 9.23077 0V1.23077ZM1.23415 3.14134L2.46492 14.8336L3.68892 14.7049L2.45815 3.0125L1.23415 3.14134ZM3.07692 15.3846H10.4615V14.1538H3.07692V15.3846ZM11.0735 14.8336L12.3043 3.14134L11.0803 3.0125L9.84954 14.7049L11.0735 14.8336ZM11.6923 2.46154H1.84615V3.69231H11.6923V2.46154ZM0.615385 1.84615H12.9231V0.615385H0.615385V1.84615ZM4.30769 1.23077H9.23077V0H4.30769V1.23077Z" fill="#C0392B"/>
</g>
<defs>
<clipPath id="clip0">
<path d="M0 0H13.5385V16H0V0Z" fill="white"/>
</clipPath>
</defs>
</svg>
